<svg xmlns="http://www.w3.org/2000/svg" width="337" height="132" viewBox="0 0 337 132" fill="none"><path d="M24.8271 37.3571L50.9634 37.3624L66.8559 37.3651V21.4941L24.8271 37.3571Z" fill="#FF9D28"></path><path d="M66.8564 21.4942V77.5267L86.7059 14L66.8564 21.4942Z" fill="#68C5ED"></path><path d="M66.8554 37.365L50.9629 37.3623L66.8554 77.5266V37.365Z" fill="#044D80"></path><path d="M24.8271 37.3574L55.0388 47.6683L50.9634 37.3627L24.8271 37.3574Z" fill="#E54747"></path><path d="M121.107 62.777C120.877 63.0093 120.493 63.2991 119.956 63.6472C119.418 63.9957 118.718 64.3438 117.854 64.6922C116.991 65.0399 115.935 65.3393 114.688 65.5917C113.44 65.8425 112.011 65.9686 110.4 65.9686C107.291 65.9686 104.604 65.4654 102.34 64.4601C100.075 63.4549 98.2041 62.0514 96.727 60.2529C95.2493 58.4539 94.1654 56.3266 93.4746 53.8694C92.7838 51.413 92.4385 48.7149 92.4385 45.7743C92.4385 42.8349 92.8126 40.1165 93.561 37.6213C94.3093 35.1259 95.4318 32.97 96.9285 31.1509C98.4253 29.3331 100.296 27.9111 102.542 26.8856C104.787 25.8612 107.425 25.3479 110.457 25.3479C111.954 25.3479 113.307 25.4837 114.516 25.7541C115.725 26.025 116.78 26.3444 117.682 26.7116C118.583 27.0797 119.332 27.4658 119.927 27.8722C120.522 28.2783 120.973 28.6176 121.28 28.8876C121.625 29.1978 121.922 29.565 122.172 29.9901C122.422 30.4163 122.547 30.8805 122.547 31.383C122.547 32.1573 122.259 32.9306 121.683 33.7042C121.107 34.4785 120.474 35.1941 119.783 35.8513C119.323 35.3871 118.805 34.9139 118.229 34.4297C117.653 33.9462 117.01 33.5212 116.3 33.153C115.59 32.7858 114.784 32.4765 113.882 32.2245C112.98 31.9733 111.973 31.8472 110.86 31.8472C108.903 31.8472 107.262 32.2444 105.938 33.0368C104.614 33.8303 103.549 34.8647 102.743 36.1415C101.937 37.4182 101.362 38.8788 101.016 40.5227C100.671 42.1674 100.498 43.8404 100.498 45.5424C100.498 47.3611 100.671 49.1019 101.016 50.7648C101.361 52.4284 101.956 53.8988 102.801 55.175C103.644 56.4515 104.748 57.4771 106.111 58.2504C107.473 59.0249 109.171 59.4112 111.206 59.4112C112.279 59.4112 113.268 59.2761 114.17 59.0052C115.072 58.7347 115.868 58.4056 116.559 58.0181C117.25 57.6322 117.855 57.2262 118.373 56.8002C118.891 56.3746 119.323 56.0076 119.668 55.6973C119.898 55.9686 120.166 56.2978 120.474 56.6841C120.783 57.0744 121.071 57.4812 121.337 57.9027C121.606 58.3288 121.836 58.754 122.028 59.1789C122.22 59.6053 122.316 59.9916 122.316 60.3393C122.316 60.8429 122.22 61.2681 122.028 61.6162C121.836 61.9645 121.529 62.3518 121.107 62.777ZM150.774 58.3264C150.774 61.4013 151.217 63.6392 152.106 65.0403C151.411 65.3122 150.764 65.5071 150.166 65.6238C149.567 65.7408 148.94 65.7988 148.284 65.7988C146.894 65.7988 145.841 65.5264 145.128 64.9817C144.413 64.4373 143.959 63.6589 143.767 62.6464C142.917 63.5426 141.797 64.3011 140.407 64.924C139.018 65.5455 137.318 65.8577 135.311 65.8577C134.268 65.8577 133.226 65.7119 132.184 65.4219C131.141 65.1296 130.195 64.6552 129.346 63.9965C128.496 63.3364 127.801 62.4537 127.261 61.3479C126.72 60.242 126.45 58.8941 126.45 57.3038C126.45 55.3253 126.922 53.7147 127.869 52.4738C128.815 51.2317 130.002 50.2524 131.431 49.5344C132.859 48.8172 134.403 48.3235 136.064 48.0512C137.724 47.7794 139.249 47.6053 140.639 47.5268C141.103 47.4884 141.556 47.4683 142 47.4683H143.245V46.4058C143.245 44.9098 142.849 43.847 142.058 43.2177C141.266 42.5882 139.982 42.2727 138.207 42.2727C136.546 42.2727 135.069 42.5453 133.776 43.0898C132.482 43.6353 131.218 44.2575 129.983 44.9581C129.442 44.2966 129.007 43.5671 128.68 42.7689C128.351 41.9717 128.187 41.3779 128.187 40.9883C128.187 40.4438 128.486 39.9183 129.085 39.412C129.683 38.9068 130.504 38.4488 131.547 38.0401C132.589 37.6315 133.786 37.3013 135.138 37.0478C136.488 36.795 137.917 36.6683 139.423 36.6683C141.508 36.6683 143.274 36.8827 144.722 37.3105C146.17 37.7392 147.348 38.4005 148.255 39.2953C149.162 40.1912 149.809 41.3095 150.195 42.6521C150.581 43.9949 150.774 45.5621 150.774 47.3516V58.3264H150.774ZM143.361 51.5547H142.55C142.279 51.5547 142.009 51.5749 141.739 51.6133C140.774 51.6917 139.818 51.8082 138.873 51.9631C137.926 52.1193 137.086 52.3917 136.353 52.7807C135.62 53.1701 135.021 53.6765 134.558 54.2984C134.095 54.9214 133.863 55.7197 133.863 56.6922C133.863 57.7821 134.172 58.7059 134.79 59.465C135.407 60.2241 136.449 60.6036 137.917 60.6036C138.65 60.6036 139.345 60.5069 140.002 60.3112C140.658 60.1175 141.237 59.8643 141.739 59.5529C142.241 59.2415 142.637 58.9012 142.927 58.5309C143.216 58.1615 143.361 57.8213 143.361 57.5096V51.5547H143.361ZM165.194 40.054C165.809 39.3151 166.772 38.5654 168.081 37.8063C169.389 37.0474 171.044 36.6679 173.046 36.6679C174.47 36.6679 175.827 36.9113 177.117 37.3976C178.405 37.8846 179.551 38.673 180.551 39.762C181.552 40.8521 182.351 42.2923 182.948 44.082C183.544 45.8727 183.843 48.0721 183.843 50.6788C183.843 53.7145 183.496 56.2157 182.803 58.1806C182.11 60.1467 181.216 61.7035 180.119 62.8513C179.022 63.9994 177.8 64.807 176.453 65.2738C175.106 65.7408 173.758 65.9746 172.412 65.9746C171.295 65.9746 170.323 65.848 169.496 65.5952C168.668 65.3416 167.966 65.0604 167.389 64.7486C166.811 64.4375 166.369 64.1266 166.062 63.8144C165.754 63.5034 165.561 63.2888 165.484 63.1719V77.5229H157.608V37.4851C157.801 37.4469 158.035 37.4077 158.308 37.3685C158.542 37.3303 158.814 37.3009 159.125 37.2808C159.436 37.2617 159.806 37.2518 160.234 37.2518C161.517 37.2518 162.606 37.4662 163.501 37.894C164.396 38.3227 164.961 39.0423 165.194 40.054ZM175.619 50.8538C175.619 49.6864 175.523 48.5973 175.331 47.5849C175.139 46.5734 174.822 45.6975 174.381 44.9579C173.939 44.2189 173.344 43.6443 172.595 43.2354C171.846 42.8269 170.935 42.6229 169.86 42.6229C168.248 42.6229 167.125 42.9347 166.492 43.5566C165.858 44.1797 165.542 44.8612 165.542 45.6001V57.9766C165.848 58.2884 166.395 58.6576 167.182 59.0857C167.969 59.5143 168.88 59.7275 169.918 59.7275C171.876 59.7275 173.315 58.9499 174.237 57.3927C175.158 55.8363 175.619 53.6562 175.619 50.8538ZM189.922 60.8955C189.651 60.1175 189.478 59.2997 189.401 58.4434C189.323 57.5876 189.285 56.7316 189.285 55.8743V28.7866C189.555 28.7484 189.844 28.7092 190.154 28.6699C190.423 28.6317 190.713 28.6026 191.022 28.5824C191.331 28.5633 191.639 28.5533 191.949 28.5533C192.566 28.5533 193.184 28.6118 193.802 28.7283C194.419 28.8453 194.979 29.0787 195.482 29.4288C195.983 29.779 196.388 30.2563 196.698 30.8591C197.007 31.4629 197.161 32.2512 197.161 33.2234V37.3682H205.269V43.2649H197.161V55.7141C197.161 58.4289 198.261 59.786 200.462 59.786C201.003 59.786 201.514 59.6989 201.997 59.5233C202.479 59.3483 202.914 59.1539 203.3 58.9398C203.686 58.7258 204.024 58.502 204.314 58.2683C204.603 58.0347 204.806 57.8599 204.922 57.7431C205.501 58.5999 205.944 59.3414 206.254 59.9672C206.562 60.5938 206.717 61.1818 206.717 61.7312C206.717 62.2424 206.515 62.7437 206.109 63.2344C205.703 63.7252 205.133 64.1777 204.4 64.5899C203.667 65.0021 202.779 65.336 201.736 65.5915C200.694 65.847 199.554 65.9748 198.319 65.9748C195.925 65.9748 194.062 65.5075 192.73 64.5737C191.398 63.6392 190.462 62.4131 189.922 60.8955ZM225.218 60.1364C226.186 60.1364 227.038 60.0298 227.775 59.8152C228.511 59.602 229.169 59.3391 229.751 59.0277C230.332 58.7166 230.836 58.3759 231.262 58.006C231.688 57.6365 232.075 57.296 232.425 56.984C232.889 57.5675 233.373 58.3175 233.877 59.2313C234.381 60.1467 234.633 60.8955 234.633 61.479C234.633 62.3356 234.15 63.114 233.185 63.8144C232.374 64.4375 231.225 64.9727 229.739 65.4196C228.252 65.8669 226.505 66.091 224.498 66.091C222.682 66.091 220.897 65.8577 219.141 65.3905C217.384 64.9238 215.82 64.1062 214.45 62.9384C213.079 61.7714 211.969 60.205 211.119 58.2393C210.27 56.274 209.845 53.7934 209.845 50.7957C209.845 48.3436 210.222 46.2331 210.974 44.4617C211.728 42.6911 212.731 41.2218 213.987 40.0542C215.241 38.8866 216.66 38.031 218.243 37.4853C219.826 36.9409 221.448 36.6681 223.108 36.6681C225.27 36.6681 227.104 37.0094 228.61 37.6897C230.116 38.3711 231.341 39.2859 232.287 40.4336C233.233 41.5818 233.918 42.8953 234.343 44.3742C234.767 45.8536 234.98 47.4099 234.98 49.0444V49.8616C234.98 50.1738 234.97 50.5038 234.951 50.854C234.932 51.2046 234.913 51.5457 234.894 51.8756C234.874 52.2072 234.845 52.4695 234.807 52.664H217.722C217.877 54.8047 218.535 56.5851 219.697 58.006C220.859 59.427 222.699 60.1364 225.218 60.1364ZM227.857 48.2853C227.857 46.4173 227.497 44.8994 226.779 43.7318C226.06 42.5644 224.769 41.9803 222.906 41.9803C221.313 41.9803 220.042 42.5352 219.09 43.6443C218.138 44.7536 217.664 46.3005 217.664 48.2851H227.857V48.2853ZM248.687 40.2015C248.918 39.8542 249.227 39.4683 249.614 39.0431C249.999 38.6182 250.472 38.2321 251.033 37.8848C251.592 37.5373 252.21 37.2471 252.886 37.0156C253.561 36.7839 254.285 36.6681 255.058 36.6681C255.521 36.6681 256.013 36.7073 256.535 36.7839C257.056 36.8614 257.538 37.0064 257.982 37.2181C258.426 37.4307 258.783 37.7197 259.054 38.0865C259.324 38.4533 259.459 38.9066 259.459 39.4467C259.459 40.2958 259.246 41.2711 258.822 42.372C258.397 43.474 257.973 44.4136 257.548 45.1916C256.891 44.6468 256.235 44.2284 255.579 43.9365C254.922 43.6447 254.15 43.4985 253.262 43.4985C252.065 43.4985 251.062 43.8499 250.251 44.5521C249.44 45.2545 249.034 46.0937 249.034 47.0696V65.9682H241.158V37.4851C241.351 37.4469 241.583 37.4077 241.853 37.3685C242.085 37.3303 242.355 37.3009 242.664 37.2808C242.973 37.2617 243.339 37.2518 243.764 37.2518C245 37.2518 246.071 37.4933 246.979 37.9752C247.885 38.4566 248.456 39.1992 248.687 40.2015ZM271.081 40.2015C271.312 39.8542 271.621 39.4683 272.007 39.0431C272.393 38.6182 272.866 38.2321 273.426 37.8848C273.986 37.5373 274.603 37.2471 275.279 37.0156C275.955 36.7839 276.678 36.6681 277.451 36.6681C277.914 36.6681 278.407 36.7073 278.928 36.7839C279.449 36.8614 279.931 37.0064 280.376 37.2181C280.82 37.4307 281.176 37.7197 281.448 38.0865C281.717 38.4533 281.853 38.9066 281.853 39.4467C281.853 40.2958 281.64 41.2711 281.216 42.372C280.79 43.474 280.366 44.4136 279.942 45.1916C279.285 44.6468 278.628 44.2284 277.972 43.9365C277.316 43.6447 276.544 43.4985 275.656 43.4985C274.459 43.4985 273.455 43.8499 272.644 44.5521C271.834 45.2545 271.428 46.0937 271.428 47.0696V65.9682H263.552V37.4851C263.745 37.4469 263.976 37.4077 264.247 37.3685C264.479 37.3303 264.749 37.3009 265.058 37.2808C265.366 37.2617 265.733 37.2518 266.158 37.2518C267.393 37.2518 268.465 37.4933 269.372 37.9752C270.279 38.4566 270.849 39.1992 271.081 40.2015ZM308.668 58.3264C308.668 61.4013 309.111 63.6392 310 65.0403C309.305 65.3122 308.658 65.5071 308.06 65.6238C307.461 65.7408 306.834 65.7988 306.178 65.7988C304.787 65.7988 303.735 65.5264 303.021 64.9817C302.306 64.4373 301.853 63.6589 301.66 62.6464C300.811 63.5426 299.691 64.3011 298.301 64.924C296.911 65.5455 295.212 65.8577 293.205 65.8577C292.162 65.8577 291.12 65.7119 290.077 65.4219C289.035 65.1296 288.088 64.6552 287.239 63.9965C286.389 63.3364 285.695 62.4537 285.154 61.3479C284.613 60.242 284.344 58.8941 284.344 57.3038C284.344 55.3253 284.816 53.7147 285.763 52.4738C286.708 51.2317 287.896 50.2524 289.324 49.5344C290.752 48.8172 292.297 48.3235 293.958 48.0512C295.617 47.7794 297.143 47.6053 298.533 47.5268C298.996 47.4884 299.449 47.4683 299.894 47.4683H301.139V46.4058C301.139 44.9098 300.742 43.847 299.951 43.2177C299.159 42.5882 297.876 42.2727 296.1 42.2727C294.44 42.2727 292.963 42.5453 291.67 43.0898C290.376 43.6353 289.112 44.2575 287.876 44.9581C287.336 44.2966 286.9 43.5671 286.573 42.7689C286.245 41.9717 286.081 41.3779 286.081 40.9883C286.081 40.4438 286.38 39.9183 286.979 39.412C287.577 38.9068 288.398 38.4488 289.44 38.0401C290.483 37.6315 291.679 37.3013 293.031 37.0478C294.382 36.795 295.811 36.6683 297.316 36.6683C299.401 36.6683 301.168 36.8827 302.616 37.3105C304.063 37.7392 305.241 38.4005 306.148 39.2953C307.055 40.1912 307.702 41.3095 308.089 42.6521C308.474 43.9949 308.668 45.5621 308.668 47.3516V58.3264ZM301.254 51.5547H300.444C300.173 51.5547 299.903 51.5749 299.633 51.6133C298.668 51.6917 297.712 51.8082 296.766 51.9631C295.82 52.1193 294.98 52.3917 294.247 52.7807C293.513 53.1701 292.915 53.6765 292.452 54.2984C291.988 54.9214 291.756 55.7197 291.756 56.6922C291.756 57.7821 292.065 58.7059 292.683 59.465C293.3 60.2241 294.343 60.6036 295.811 60.6036C296.544 60.6036 297.239 60.5069 297.896 60.3112C298.552 60.1175 299.131 59.8643 299.633 59.5529C300.134 59.2415 300.531 58.9012 300.82 58.5309C301.11 58.1615 301.255 57.8213 301.255 57.5096V51.5547H301.254Z" fill="#044D80"></path><g clip-path="url(#clip0)"><path fill-rule="evenodd" clip-rule="evenodd" d="M97.4396 103.972C97.6397 103.355 98.2153 102.938 98.8633 102.938C99.5113 102.938 100.085 103.355 100.285 103.972L102.795 111.706C102.869 111.933 103.014 112.131 103.207 112.272C103.401 112.414 103.636 112.49 103.874 112.49L112.006 112.486C112.654 112.486 113.228 112.903 113.428 113.521C113.628 114.136 113.409 114.811 112.885 115.192L106.306 119.97C106.111 120.111 105.966 120.31 105.892 120.536C105.818 120.765 105.82 121.011 105.892 121.238L108.408 128.97C108.608 129.587 108.389 130.262 107.865 130.643C107.341 131.024 106.63 131.024 106.106 130.643L99.5303 125.861C99.3359 125.72 99.1034 125.644 98.8633 125.644C98.6231 125.644 98.3906 125.72 98.1962 125.861L91.619 130.643C91.0949 131.024 90.3859 131.024 89.8617 130.643C89.3357 130.262 89.1166 129.587 89.3186 128.97L91.8325 121.238C91.9068 121.011 91.9068 120.765 91.8325 120.536C91.7601 120.31 91.6152 120.111 91.4208 119.97L84.8417 115.192C84.3176 114.811 84.0965 114.136 84.2966 113.521C84.4986 112.903 85.0723 112.486 85.7203 112.486L93.8508 112.49C94.0909 112.49 94.3254 112.414 94.5179 112.272C94.7123 112.131 94.8571 111.933 94.9295 111.706L97.4396 103.972Z" fill="#FF9D28"></path></g><g clip-path="url(#clip1)"><path fill-rule="evenodd" clip-rule="evenodd" d="M131.94 103.972C132.14 103.355 132.715 102.938 133.363 102.938C134.011 102.938 134.585 103.355 134.785 103.972L137.295 111.706C137.369 111.933 137.514 112.131 137.707 112.272C137.901 112.414 138.136 112.49 138.374 112.49L146.506 112.486C147.154 112.486 147.728 112.903 147.928 113.521C148.128 114.136 147.909 114.811 147.385 115.192L140.806 119.97C140.611 120.111 140.466 120.31 140.392 120.536C140.318 120.765 140.32 121.011 140.392 121.238L142.908 128.97C143.108 129.587 142.889 130.262 142.365 130.643C141.841 131.024 141.13 131.024 140.606 130.643L134.03 125.861C133.836 125.72 133.603 125.644 133.363 125.644C133.123 125.644 132.891 125.72 132.696 125.861L126.119 130.643C125.595 131.024 124.886 131.024 124.362 130.643C123.836 130.262 123.617 129.587 123.819 128.97L126.332 121.238C126.407 121.011 126.407 120.765 126.332 120.536C126.26 120.31 126.115 120.111 125.921 119.97L119.342 115.192C118.818 114.811 118.596 114.136 118.797 113.521C118.999 112.903 119.572 112.486 120.22 112.486L128.351 112.49C128.591 112.49 128.825 112.414 129.018 112.272C129.212 112.131 129.357 111.933 129.43 111.706L131.94 103.972Z" fill="#FF9D28"></path></g><g clip-path="url(#clip2)"><path fill-rule="evenodd" clip-rule="evenodd" d="M166.44 103.972C166.64 103.355 167.215 102.938 167.863 102.938C168.511 102.938 169.085 103.355 169.285 103.972L171.795 111.706C171.869 111.933 172.014 112.131 172.207 112.272C172.401 112.414 172.636 112.49 172.874 112.49L181.006 112.486C181.654 112.486 182.228 112.903 182.428 113.521C182.628 114.136 182.409 114.811 181.885 115.192L175.306 119.97C175.111 120.111 174.966 120.31 174.892 120.536C174.818 120.765 174.82 121.011 174.892 121.238L177.408 128.97C177.608 129.587 177.389 130.262 176.865 130.643C176.341 131.024 175.63 131.024 175.106 130.643L168.53 125.861C168.336 125.72 168.103 125.644 167.863 125.644C167.623 125.644 167.391 125.72 167.196 125.861L160.619 130.643C160.095 131.024 159.386 131.024 158.862 130.643C158.336 130.262 158.117 129.587 158.319 128.97L160.832 121.238C160.907 121.011 160.907 120.765 160.832 120.536C160.76 120.31 160.615 120.111 160.421 119.97L153.842 115.192C153.318 114.811 153.096 114.136 153.297 113.521C153.499 112.903 154.072 112.486 154.72 112.486L162.851 112.49C163.091 112.49 163.325 112.414 163.518 112.272C163.712 112.131 163.857 111.933 163.93 111.706L166.44 103.972Z" fill="#FF9D28"></path></g><g clip-path="url(#clip3)"><path fill-rule="evenodd" clip-rule="evenodd" d="M200.94 103.972C201.14 103.355 201.715 102.938 202.363 102.938C203.011 102.938 203.585 103.355 203.785 103.972L206.295 111.706C206.369 111.933 206.514 112.131 206.707 112.272C206.901 112.414 207.136 112.49 207.374 112.49L215.506 112.486C216.154 112.486 216.728 112.903 216.928 113.521C217.128 114.136 216.909 114.811 216.385 115.192L209.806 119.97C209.611 120.111 209.466 120.31 209.392 120.536C209.318 120.765 209.32 121.011 209.392 121.238L211.908 128.97C212.108 129.587 211.889 130.262 211.365 130.643C210.841 131.024 210.13 131.024 209.606 130.643L203.03 125.861C202.836 125.72 202.603 125.644 202.363 125.644C202.123 125.644 201.891 125.72 201.696 125.861L195.119 130.643C194.595 131.024 193.886 131.024 193.362 130.643C192.836 130.262 192.617 129.587 192.819 128.97L195.332 121.238C195.407 121.011 195.407 120.765 195.332 120.536C195.26 120.31 195.115 120.111 194.921 119.97L188.342 115.192C187.818 114.811 187.596 114.136 187.797 113.521C187.999 112.903 188.572 112.486 189.22 112.486L197.351 112.49C197.591 112.49 197.825 112.414 198.018 112.272C198.212 112.131 198.357 111.933 198.43 111.706L200.94 103.972Z" fill="#FF9D28"></path></g><g clip-path="url(#clip4)"><mask id="mask0" maskUnits="userSpaceOnUse" x="223" y="102" width="31" height="29"><rect x="223" y="102" width="31" height="29" fill="#FF9D28"></rect></mask><g mask="url(#mask0)"><path fill-rule="evenodd" clip-rule="evenodd" d="M236.216 104.035C236.416 103.417 236.992 103 237.64 103C238.288 103 238.861 103.417 239.061 104.035L241.571 111.769C241.646 111.996 241.791 112.194 241.983 112.335C242.178 112.476 242.412 112.552 242.65 112.552L250.783 112.548C251.431 112.548 252.004 112.966 252.204 113.583C252.404 114.199 252.185 114.874 251.661 115.255L245.082 120.033C244.888 120.174 244.743 120.372 244.669 120.599C244.594 120.828 244.596 121.073 244.669 121.3L247.184 129.032C247.384 129.65 247.165 130.325 246.641 130.706C246.117 131.087 245.406 131.087 244.882 130.706L238.307 125.924C238.112 125.783 237.88 125.707 237.64 125.707C237.399 125.707 237.167 125.783 236.973 125.924L230.395 130.706C229.871 131.087 229.162 131.087 228.638 130.706C228.112 130.325 227.893 129.65 228.095 129.032L230.609 121.3C230.683 121.073 230.683 120.828 230.609 120.599C230.536 120.372 230.392 120.174 230.197 120.033L223.618 115.255C223.094 114.874 222.873 114.199 223.073 113.583C223.275 112.966 223.849 112.548 224.497 112.548L232.627 112.552C232.867 112.552 233.102 112.476 233.294 112.335C233.489 112.194 233.633 111.996 233.706 111.769L236.216 104.035Z" fill="#CCCCCC"></path></g><mask id="mask1" maskUnits="userSpaceOnUse" x="223" y="102" width="23" height="29"><rect x="223" y="102" width="23" height="29" fill="#C4C4C4"></rect></mask><g mask="url(#mask1)"><path fill-rule="evenodd" clip-rule="evenodd" d="M236.216 104.035C236.416 103.417 236.992 103 237.64 103C238.288 103 238.861 103.417 239.061 104.035L241.571 111.769C241.646 111.996 241.791 112.194 241.983 112.335C242.178 112.476 242.412 112.552 242.65 112.552L250.783 112.548C251.431 112.548 252.004 112.966 252.204 113.583C252.404 114.199 252.185 114.874 251.661 115.255L245.082 120.033C244.888 120.174 244.743 120.372 244.669 120.599C244.594 120.828 244.596 121.073 244.669 121.3L247.184 129.032C247.384 129.65 247.165 130.325 246.641 130.706C246.117 131.087 245.406 131.087 244.882 130.706L238.307 125.924C238.112 125.783 237.88 125.707 237.64 125.707C237.399 125.707 237.167 125.783 236.973 125.924L230.395 130.706C229.871 131.087 229.162 131.087 228.638 130.706C228.112 130.325 227.893 129.65 228.095 129.032L230.609 121.3C230.683 121.073 230.683 120.828 230.609 120.599C230.536 120.372 230.392 120.174 230.197 120.033L223.618 115.255C223.094 114.874 222.873 114.199 223.073 113.583C223.275 112.966 223.849 112.548 224.497 112.548L232.627 112.552C232.867 112.552 233.102 112.476 233.294 112.335C233.489 112.194 233.633 111.996 233.706 111.769L236.216 104.035Z" fill="#FF9D28"></path></g></g><defs><clipPath id="clip0"><rect width="30" height="30" fill="white" transform="translate(84.2236 102)"></rect></clipPath><clipPath id="clip1"><rect width="30" height="30" fill="white" transform="translate(118.724 102)"></rect></clipPath><clipPath id="clip2"><rect width="30" height="30" fill="white" transform="translate(153.224 102)"></rect></clipPath><clipPath id="clip3"><rect width="30" height="30" fill="white" transform="translate(187.724 102)"></rect></clipPath><clipPath id="clip4"><rect width="30" height="30" fill="white" transform="translate(222.224 102)"></rect></clipPath></defs></svg>