<svg xmlns="http://www.w3.org/2000/svg" width="319" height="127" viewBox="0 0 319 127" fill="none"><path d="M88.991 25.8645L119.067 25.8645L119.067 31.4635L107.225 31.4635L107.225 63.0263L100.734 63.0263L100.734 31.4635L88.9414 31.4635L88.991 25.8645ZM117.779 36.1212L123.328 36.1212L123.328 41.3238H123.428C123.626 40.5806 123.973 39.8869 124.468 39.1932C124.964 38.4995 125.558 37.8554 126.301 37.3103C126.995 36.7157 127.788 36.2698 128.68 35.923C129.522 35.5761 130.414 35.3779 131.306 35.3779C132 35.3779 132.495 35.4275 132.743 35.4275C132.991 35.477 133.288 35.5266 133.536 35.5266V41.2247C133.139 41.1256 132.693 41.0761 132.247 41.0265C131.801 40.977 131.405 40.9274 130.959 40.9274C129.968 40.9274 129.027 41.1256 128.135 41.522C127.243 41.9184 126.5 42.513 125.806 43.2562C125.162 44.049 124.617 44.9905 124.22 46.1301C123.824 47.2697 123.626 48.6075 123.626 50.094L123.626 62.8777L117.68 62.8777L117.779 36.1212ZM160.788 63.0263L154.941 63.0263V59.2606L154.842 59.2606C154.099 60.648 153.008 61.6885 151.571 62.5309C150.135 63.3732 148.648 63.7696 147.162 63.7696C143.644 63.7696 141.067 62.9272 139.482 61.1435C137.896 59.4093 137.103 56.7336 137.103 53.2156L137.103 36.1212L143.049 36.1212L143.049 52.621C143.049 54.9994 143.495 56.684 144.436 57.6255C145.328 58.6165 146.617 59.112 148.252 59.112C149.49 59.112 150.531 58.9138 151.373 58.5174C152.216 58.121 152.909 57.6255 153.405 56.9813C153.95 56.3372 154.297 55.5444 154.544 54.6525C154.792 53.7606 154.891 52.7697 154.891 51.7291L154.891 36.1212L160.837 36.1212L160.837 63.0263H160.788ZM170.896 54.4048C171.094 56.139 171.738 57.3282 172.878 58.0714C174.017 58.7651 175.405 59.112 176.99 59.112C177.535 59.112 178.179 59.0624 178.873 58.9633C179.567 58.8642 180.26 58.7156 180.855 58.4678C181.499 58.2201 181.995 57.8732 182.391 57.3777C182.787 56.8822 182.986 56.2877 182.936 55.5444C182.887 54.8012 182.639 54.157 182.094 53.6616C181.549 53.1661 180.905 52.8192 180.112 52.4724C179.319 52.1751 178.378 51.9273 177.337 51.7291C176.297 51.5309 175.256 51.2832 174.166 51.0355C173.076 50.7877 171.986 50.4904 170.945 50.1436C169.905 49.7967 169.013 49.3508 168.17 48.7066C167.378 48.112 166.684 47.3688 166.238 46.4274C165.743 45.486 165.495 44.3959 165.495 43.0085C165.495 41.522 165.842 40.3328 166.585 39.3419C167.279 38.3509 168.22 37.5581 169.31 36.9635C170.4 36.3689 171.639 35.923 172.977 35.6752C174.315 35.4275 175.603 35.3284 176.792 35.3284C178.179 35.3284 179.517 35.477 180.756 35.7743C181.995 36.0716 183.184 36.5176 184.175 37.2112C185.215 37.8554 186.058 38.7473 186.702 39.7878C187.396 40.8283 187.792 42.1166 187.99 43.6031L181.796 43.6031C181.499 42.1662 180.855 41.2247 179.864 40.7292C178.824 40.2337 177.684 39.986 176.346 39.986C175.95 39.986 175.405 40.0355 174.86 40.0851C174.265 40.1842 173.77 40.2833 173.224 40.4815C172.729 40.6797 172.283 40.977 171.936 41.3238C171.589 41.6707 171.391 42.1662 171.391 42.7607C171.391 43.504 171.639 44.049 172.134 44.495C172.63 44.9409 173.274 45.2878 174.116 45.6346C174.909 45.9319 175.851 46.1796 176.891 46.3778C177.932 46.576 179.022 46.8238 180.112 47.0715C181.202 47.3193 182.242 47.6166 183.283 47.9634C184.323 48.3102 185.265 48.7562 186.058 49.4003C186.85 49.9949 187.544 50.7382 188.04 51.63C188.535 52.5219 188.783 53.6616 188.783 54.9498C188.783 56.5354 188.436 57.8732 187.693 59.0129C186.95 60.1029 186.008 61.0444 184.869 61.7381C183.729 62.4318 182.391 62.9272 181.004 63.2741C179.567 63.5714 178.179 63.7696 176.792 63.7696C175.107 63.7696 173.522 63.5714 172.085 63.175C170.648 62.7786 169.36 62.184 168.319 61.4408C167.279 60.648 166.436 59.7066 165.842 58.5174C165.247 57.3777 164.9 55.9904 164.851 54.3552L170.846 54.3552V54.4048H170.896ZM190.468 36.1212L194.977 36.1212L194.977 27.9951L200.922 27.9951L200.922 36.0716L206.274 36.0716V40.4815L200.922 40.4815L200.922 54.8507C200.922 55.4949 200.972 55.9904 201.022 56.4859C201.071 56.9318 201.22 57.3282 201.368 57.6255C201.567 57.9228 201.864 58.1705 202.211 58.3192C202.607 58.4678 203.103 58.5669 203.796 58.5669C204.193 58.5669 204.639 58.5669 205.035 58.5174C205.431 58.4678 205.877 58.4183 206.274 58.3192L206.274 62.9272C205.63 63.0263 204.985 63.0759 204.341 63.1254C203.697 63.2245 203.103 63.2245 202.409 63.2245C200.823 63.2245 199.585 63.0759 198.643 62.7786C197.702 62.4813 196.959 62.0354 196.413 61.4903C195.868 60.8957 195.522 60.202 195.323 59.3597C195.125 58.5174 195.026 57.4768 194.977 56.3868L194.977 40.531L190.468 40.531V36.0221V36.1212ZM210.436 36.1212L216.035 36.1212V39.7878H216.134C216.976 38.2022 218.116 37.1121 219.602 36.4185C221.089 35.7248 222.674 35.3779 224.458 35.3779C226.589 35.3779 228.422 35.7248 230.008 36.5176C231.593 37.2608 232.882 38.2518 233.922 39.5896C234.963 40.8779 235.755 42.4139 236.251 44.1481C236.746 45.8823 237.044 47.7652 237.044 49.6976C237.044 51.5309 236.796 53.2652 236.35 54.9498C235.855 56.6345 235.161 58.1705 234.219 59.4588C233.278 60.7471 232.089 61.7876 230.602 62.5804C229.116 63.3732 227.431 63.7696 225.449 63.7696C224.607 63.7696 223.715 63.6705 222.873 63.5218C222.03 63.3732 221.188 63.1254 220.395 62.7786C219.602 62.4318 218.859 61.9858 218.215 61.4408C217.521 60.8957 216.976 60.2516 216.53 59.5579H216.431L216.431 72.9857L210.485 72.9857L210.485 36.1212H210.436ZM231.197 49.5985C231.197 48.4094 231.048 47.2202 230.701 46.0805C230.404 44.9409 229.909 43.9499 229.265 43.058C228.62 42.1662 227.828 41.4725 226.936 40.9274C225.994 40.3824 224.904 40.1346 223.715 40.1346C221.238 40.1346 219.355 40.977 218.066 42.7112C216.828 44.4454 216.184 46.7742 216.184 49.6481C216.184 51.0355 216.332 52.2742 216.679 53.4138C217.026 54.5534 217.472 55.5444 218.166 56.3868C218.81 57.2291 219.602 57.8732 220.544 58.3687C221.485 58.8642 222.526 59.112 223.765 59.112C225.152 59.112 226.242 58.8147 227.183 58.2696C228.125 57.7246 228.868 56.9813 229.512 56.139C230.107 55.2471 230.553 54.2562 230.801 53.1165C231.048 51.9273 231.197 50.7877 231.197 49.5985V49.5985ZM241.652 25.8645L247.598 25.8645L247.598 31.4635L241.652 31.4635L241.652 25.8645ZM241.652 36.1212L247.598 36.1212L247.598 63.0263L241.652 63.0263L241.652 36.1212ZM252.899 25.8645L258.845 25.8645L258.845 63.0263L252.899 63.0263L252.899 25.8645ZM276.98 63.7696C274.85 63.7696 272.917 63.4227 271.233 62.6795C269.548 61.9363 268.161 60.9948 266.971 59.7561C265.832 58.5174 264.94 56.9813 264.345 55.2471C263.751 53.5129 263.404 51.5805 263.404 49.549C263.404 47.5175 263.701 45.6346 264.345 43.9004C264.94 42.1662 265.832 40.6797 266.971 39.3914C268.111 38.1527 269.548 37.1617 271.233 36.468C272.917 35.7743 274.85 35.3779 276.98 35.3779C279.111 35.3779 281.043 35.7248 282.728 36.468C284.413 37.1617 285.8 38.1527 286.989 39.3914C288.129 40.6301 289.021 42.1662 289.615 43.9004C290.21 45.6346 290.557 47.5175 290.557 49.549C290.557 51.63 290.259 53.5129 289.615 55.2471C288.971 56.9813 288.129 58.4678 286.989 59.7561C285.85 60.9948 284.413 61.9858 282.728 62.6795C281.043 63.3732 279.16 63.7696 276.98 63.7696ZM276.98 59.0624C278.269 59.0624 279.458 58.7651 280.399 58.2201C281.39 57.675 282.133 56.9318 282.778 56.0399C283.422 55.148 283.868 54.1075 284.165 53.0174C284.462 51.8778 284.611 50.7382 284.611 49.549C284.611 48.4093 284.462 47.2697 284.165 46.1301C283.868 44.9905 283.422 43.9995 282.778 43.1076C282.133 42.2157 281.341 41.522 280.399 40.977C279.408 40.4319 278.269 40.1346 276.98 40.1346C275.692 40.1346 274.503 40.4319 273.561 40.977C272.57 41.522 271.827 42.2653 271.183 43.1076C270.539 43.9995 270.093 44.9905 269.796 46.1301C269.498 47.2697 269.35 48.4093 269.35 49.549C269.35 50.7382 269.498 51.8778 269.796 53.0174C270.093 54.157 270.539 55.148 271.183 56.0399C271.827 56.9318 272.62 57.675 273.561 58.2201C274.552 58.8147 275.692 59.0624 276.98 59.0624ZM292.341 36.1212L296.85 36.1212L296.85 27.9951L302.795 27.9951L302.795 36.0716L308.147 36.0716V40.4815L302.795 40.4815L302.795 54.8507C302.795 55.4949 302.845 55.9904 302.895 56.4859C302.944 56.9318 303.093 57.3282 303.241 57.6255C303.44 57.9228 303.737 58.1705 304.084 58.3192C304.48 58.4678 304.976 58.5669 305.669 58.5669C306.066 58.5669 306.512 58.5669 306.908 58.5174C307.304 58.4678 307.75 58.4183 308.147 58.3192L308.147 62.9272C307.503 63.0263 306.858 63.0759 306.214 63.1254C305.57 63.2245 304.976 63.2245 304.282 63.2245C302.696 63.2245 301.458 63.0759 300.516 62.7786C299.575 62.4813 298.831 62.0354 298.286 61.4903C297.741 60.8957 297.395 60.202 297.196 59.3597C296.998 58.5174 296.899 57.4768 296.85 56.3868L296.85 40.531L292.341 40.531V36.0221V36.1212Z" fill="black"></path><path d="M82.0546 25.8647L54.8522 25.8647L46.4784 0L38.055 25.8647L10.8525 25.8151L32.8524 41.8195L24.429 67.6841L46.4288 51.6797L68.4286 67.6841L60.0548 41.8195L82.0546 25.8647Z" fill="#00B67A"></path><path d="M61.9378 47.6661L60.055 41.8193L46.4785 51.6796L61.9378 47.6661Z" fill="#005128"></path><g clip-path="url(#clip0)"><path d="M105.5 96.9858H75.5V126.986H105.5V96.9858Z" fill="#00B67A"></path><path d="M90.5 117.205L95.0625 116.048L96.9688 121.923L90.5 117.205ZM101 109.611H92.9688L90.5 102.048L88.0313 109.611H80L86.5 114.298L84.0312 121.861L90.5313 117.173L94.5313 114.298L101 109.611V109.611Z" fill="white"></path></g><g clip-path="url(#clip1)"><path d="M140 96.9858H110V126.986H140V96.9858Z" fill="#00B67A"></path><path d="M125 117.205L129.563 116.048L131.469 121.923L125 117.205ZM135.5 109.611H127.469L125 102.048L122.531 109.611H114.5L121 114.298L118.531 121.861L125.031 117.173L129.031 114.298L135.5 109.611V109.611Z" fill="white"></path></g><g clip-path="url(#clip2)"><path d="M174.5 96.9858H144.5V126.986H174.5V96.9858Z" fill="#00B67A"></path><path d="M159.5 117.205L164.063 116.048L165.969 121.923L159.5 117.205ZM170 109.611H161.969L159.5 102.048L157.031 109.611H149L155.5 114.298L153.031 121.861L159.531 117.173L163.531 114.298L170 109.611V109.611Z" fill="white"></path></g><g clip-path="url(#clip3)"><path d="M209 96.9858H179V126.986H209V96.9858Z" fill="#00B67A"></path><path d="M194 117.205L198.563 116.048L200.469 121.923L194 117.205ZM204.5 109.611H196.469L194 102.048L191.531 109.611H183.5L190 114.298L187.531 121.861L194.031 117.173L198.031 114.298L204.5 109.611V109.611Z" fill="white"></path></g><g clip-path="url(#clip4)"><path d="M243.5 96.9858H213.5V126.986H243.5V96.9858Z" fill="#E1E1E1"></path><path d="M232.5 96.9858H213.5V126.986H232.5V96.9858Z" fill="#00B67A"></path><path d="M228.5 117.205L233.063 116.048L234.969 121.923L228.5 117.205ZM239 109.611H230.969L228.5 102.048L226.031 109.611H218L224.5 114.298L222.031 121.861L228.531 117.173L232.531 114.298L239 109.611V109.611Z" fill="white"></path></g><defs><clipPath id="clip0"><rect width="30" height="30" fill="white" transform="translate(75.5 96.9858)"></rect></clipPath><clipPath id="clip1"><rect width="30" height="30" fill="white" transform="translate(110 96.9858)"></rect></clipPath><clipPath id="clip2"><rect width="30" height="30" fill="white" transform="translate(144.5 96.9858)"></rect></clipPath><clipPath id="clip3"><rect width="30" height="30" fill="white" transform="translate(179 96.9858)"></rect></clipPath><clipPath id="clip4"><rect width="30" height="30" fill="white" transform="translate(213.5 96.9858)"></rect></clipPath></defs></svg>